<svg width="14" height="13" viewBox="0 0 14 13" fill="none" xmlns="http://www.w3.org/2000/svg">
<g filter="url(#filter0_d_140_242)">
<path fill-rule="evenodd" clip-rule="evenodd" d="M3.53502 1.83503C4.454 0.916055 5.7004 0.39978 7.00002 0.39978C8.29965 0.39978 9.54605 0.916055 10.465 1.83503C11.384 2.75401 11.9003 4.0004 11.9003 5.30003C11.9003 6.59966 11.384 7.84606 10.465 8.76503L7.00002 12.23L3.53502 8.76503C3.07996 8.31002 2.71899 7.76982 2.47271 7.17529C2.22643 6.58077 2.09967 5.94355 2.09967 5.30003C2.09967 4.65651 2.22643 4.01929 2.47271 3.42477C2.71899 2.83024 3.07996 2.29004 3.53502 1.83503ZM7.00002 6.70003C7.37133 6.70003 7.72742 6.55253 7.98997 6.28998C8.25253 6.02743 8.40003 5.67133 8.40003 5.30003C8.40003 4.92873 8.25253 4.57263 7.98997 4.31008C7.72742 4.04753 7.37133 3.90003 7.00002 3.90003C6.62872 3.90003 6.27263 4.04753 6.01008 4.31008C5.74752 4.57263 5.60002 4.92873 5.60002 5.30003C5.60002 5.67133 5.74752 6.02743 6.01008 6.28998C6.27263 6.55253 6.62872 6.70003 7.00002 6.70003Z" fill="white"/>
</g>
<defs>
<filter id="filter0_d_140_242" x="-1.90033" y="0.39978" width="17.8006" height="19.8302" filterUnits="userSpaceOnUse" color-interpolation-filters="sRGB">
<feFlood flood-opacity="0" result="BackgroundImageFix"/>
<feColorMatrix in="SourceAlpha" type="matrix" values="0 0 0 0 0 0 0 0 0 0 0 0 0 0 0 0 0 0 127 0" result="hardAlpha"/>
<feOffset dy="4"/>
<feGaussianBlur stdDeviation="2"/>
<feComposite in2="hardAlpha" operator="out"/>
<feColorMatrix type="matrix" values="0 0 0 0 0 0 0 0 0 0 0 0 0 0 0 0 0 0 0.25 0"/>
<feBlend mode="normal" in2="BackgroundImageFix" result="effect1_dropShadow_140_242"/>
<feBlend mode="normal" in="SourceGraphic" in2="effect1_dropShadow_140_242" result="shape"/>
</filter>
</defs>
</svg>
